<?xml version="1.0" encoding="utf-8"?>
<!-- Generator: Adobe Illustrator 25.2.3, SVG Export Plug-In . SVG Version: 6.00 Build 0)  -->
<svg version="1.1" id="Слой_1" xmlns="http://www.w3.org/2000/svg" xmlns:xlink="http://www.w3.org/1999/xlink" x="0px" y="0px"
	 viewBox="0 0 106.41 221.42" style="enable-background:new 0 0 106.41 221.42;" xml:space="preserve">
<style type="text/css">
	.st0{fill:#49B486;}
</style>
<path class="st0" d="M76.25,189.69c-9.04,0.05-17.78-0.71-25.66-2.91c-7.76-2.35-14.66-5.99-19.99-11.69l-1.91-2.24l-0.97-1.12
	l-0.79-1.12c-1.07-1.49-2.01-3.21-2.88-5.01c-1.73-3.64-3.04-7.8-4.01-12.17c-1.91-8.78-2.54-18.31-2.42-27.93
	c0.12-9.63,0.97-19.4,2.25-29.15c2.2-16.28,5.61-32.53,9.93-48.59l16.73,17.01L46.07,0L0,45.54l24.22-0.24
	c-6.4,15.8-11.94,32.01-16.29,48.7c-2.55,9.9-4.69,19.98-6.08,30.32c-1.37,10.34-2.05,20.96-1.04,32.02
	c0.53,5.52,1.52,11.18,3.38,16.89c0.96,2.85,2.07,5.72,3.56,8.53l1.12,2.11l1.24,1.92l2.53,3.82c7.18,10.04,17.79,17.53,28.69,22.25
	c10.99,4.62,22.27,6.86,33.19,8.15c10.92,1.2,21.59,1.4,31.88,1.42l-1.99-33.94C94.72,188.65,85.34,189.59,76.25,189.69z"/>
<rect x="-552.19" y="-48.7" width="191.49" height="406.72"/>
</svg>
