<svg width="90" height="57" viewBox="0 0 90 57" fill="none" xmlns="http://www.w3.org/2000/svg">
<path d="M83.6093 26.2356H87.8698C89.0343 26.2356 90 25.3207 90 24.2175C90 23.1143 89.0343 22.1994 87.8698 22.1994H83.6093C82.4447 22.1994 81.479 23.1143 81.479 24.2175C81.479 25.3207 82.4447 26.2356 83.6093 26.2356ZM62.3068 2.01812V6.05437C62.3068 7.15762 63.2725 8.0725 64.4371 8.0725C65.6016 8.0725 66.5673 7.15762 66.5673 6.05437V2.01812C66.5673 0.914883 65.6016 0 64.4371 0C63.2725 0 62.3068 0.914883 62.3068 2.01812ZM46.3726 9.95608L49.3834 12.8084C50.2071 13.5887 51.5704 13.5887 52.3941 12.8084C53.2178 12.028 53.2178 10.7364 52.3941 9.95608L49.3834 7.1038C48.5597 6.32346 47.1963 6.32346 46.3726 7.1038C45.5489 7.88414 45.5205 9.17574 46.3726 9.95608ZM76.4801 38.4789L79.4908 41.3312C80.3145 42.1115 81.6779 42.1115 82.5015 41.3312C83.3252 40.5509 83.3252 39.2593 82.5015 38.4789L79.4908 35.6266C78.6671 34.8463 77.3037 34.8463 76.4801 35.6266C75.6564 36.407 75.6564 37.6986 76.4801 38.4789ZM79.4908 7.1038L76.4801 9.95608C75.6564 10.7364 75.6564 12.028 76.4801 12.8084C77.3037 13.5887 78.6671 13.5887 79.4908 12.8084L82.5015 9.95608C83.3252 9.17574 83.3252 7.88414 82.5015 7.1038C81.6779 6.29655 80.3145 6.29655 79.4908 7.1038ZM78.6387 24.2175C78.6387 31.6442 72.2764 37.6717 64.4371 37.6717C56.5978 37.6717 50.2355 31.6442 50.2355 24.2175C50.2355 16.7908 56.5978 10.7633 64.4371 10.7633C72.2764 10.7633 78.6387 16.7908 78.6387 24.2175Z" fill="#FFD601"/>
<path d="M58.5761 29.7067C56.5176 20.4234 47.3452 13.4541 36.3262 13.4541C27.5777 13.4541 19.9794 17.8671 16.1955 24.3251C7.08362 25.1861 0 32.0478 0 40.3624C0 49.2691 8.14313 56.5074 18.1631 56.5074H57.5166C65.8716 56.5074 72.6525 50.48 72.6525 43.0533C72.6525 35.9495 66.4468 30.1911 58.5761 29.7067Z" fill="#F4F4F4"/>
</svg>
