<svg width="30" height="32" viewBox="0 0 30 32" fill="none" xmlns="http://www.w3.org/2000/svg">
<path d="M24.1875 6.47143C23.3375 2.775 19.55 0 15 0C11.3875 0 8.25 1.75714 6.6875 4.32857C2.925 4.67143 0 7.40357 0 10.7143C0 14.2607 3.3625 17.1429 7.5 17.1429H23.75C27.2 17.1429 30 14.7429 30 11.7857C30 8.95714 27.4375 6.66429 24.1875 6.47143Z" fill="#F4F4F4"/>
<line y1="-0.5" x2="7.59296" y2="-0.5" transform="matrix(0.658505 -0.752577 0.658505 0.752577 4.28571 27.6189)" stroke="#2798C9"/>
<line y1="-0.5" x2="7.59296" y2="-0.5" transform="matrix(0.658505 -0.752577 0.658505 0.752577 10.9524 25.7144)" stroke="#2798C9"/>
<line y1="-0.5" x2="7.59296" y2="-0.5" transform="matrix(0.658505 -0.752577 0.658505 0.752577 10.9524 31.4287)" stroke="#2798C9"/>
<line y1="-0.5" x2="7.59296" y2="-0.5" transform="matrix(0.658505 -0.752577 0.658505 0.752577 19.2857 27.6189)" stroke="#2798C9"/>
</svg>
